<svg preserveAspectRatio="none" xmlns="http://www.w3.org/2000/svg" width="960" height="114" viewBox="0 0 960 114"><path fill="#311B92" d="M3.58 40.189A135.305 135.305 0 0 0 1.115 26.58c-.357-1.523-.098-3.036-1.114-4.545V114h960V41h-.201c-.33-6.182-.268-12.378.186-18.552l-.178-.022c-.225.753-.463 1.503-.668 2.26-.461 1.719-.943 3.434-1.348 5.162-.539 2.319-1.016 4.649-1.502 6.979-.188.894-.33 1.795-.494 2.691.018.274-.053.537-.162.862-.277-.322-.271-.646-.277-.967-.355-1.826-.707-3.652-1.061-5.479l-1.326-6.953c-.412-2.131-.828-4.262-1.234-6.393-.385-1.996-.893-3.993-1.277-5.989-.053-.282-.455-.562-.455-.834v16.088c-1-6.9-4.535-13.535-8.41-19.91-.133.392.166.61.229.854.07.267.219.524.316.784 1.428 3.785 2.477 7.655 3.229 11.582.332 1.759.656 3.525.768 5.311.156.575.229 1.169.213 1.765l.01.202c.002.036.004.071.004.107-.01.063-.02.127-.027.19.057.469.258.928.105 1.473-.08-.364-.268-.652-.158-.98.07-.22-.078-.354-.229-.488-.631-2.888-1.643-5.678-2.836-8.415-1.799-4.116-4.141-7.987-7.002-11.616-.463-.592-.955-1.169-1.438-1.752-.033-.038-.086-.063-.199-.084 5.971 10.369 8.121 21.073 6.318 32.126h-2.611c-.607-5.242-1.217-10.455-1.824-16h-.174c-.455 4-.91 7.854-1.363 11.832-.836-5.221-1.229-10.51-1.309-15.769-.076-5.254.188-10.521.746-15.753-.059-.009-.117-.03-.18-.04-.264.813-.549 1.611-.783 2.429a472.934 472.934 0 0 0-1.762 6.291c-.234.866-.426 1.742-.623 2.617-.064.295-.174.551-.432.767-1.391 1.158-2.713 2.374-4.018 3.605-.074.071-.172.127-.346.255-.305-3.263-.596-6.444-.889-9.632-.23.022-.191.149-.199.24-.332 3.699-.66 7.398-.98 11.098a1.85 1.85 0 0 1-.496 1.128c-2.346 2.609-4.363 5.398-5.916 8.435-.016.028-.053.047-.164.141-.16-4.999-.02-9.928.17-14.859a142.013 142.013 0 0 0-4.943 23.172l-.004.045h-.438c-.139-1.916-.375-3.824-.557-5.736-.117-1.234.102-2.468.256-3.696.459-3.646 1.371-7.205 2.68-10.688.986-2.626 2.236-5.156 3.646-7.629.08-.137.166-.27.242-.406.023-.04.021-.092-.02-.16-3.486 3.896-6.182 8.186-8.385 12.76-1.436-6.4-3.248-12.697-5.693-18.846l-.15.025c.074.441.139.886.229 1.326.914 4.485 1.479 9.011 1.805 13.555.357 4.976.43 9.958.102 14.942-.1 1.526-.361 3.036-.551 4.554h-1.412c-.863-9.329-1.725-18.658-2.586-27.988l-.184-.003c-.867 9.33-1.729 18.661-2.6 27.991h-.9c-1.855-10.264-3.273-20.528-5.273-30.792v20.929c-1-2.089-1.654-4.192-2.5-6.255-.852-2.066-1.932-4.098-3-6.085a44.845 44.845 0 0 0-3.703-5.801c3.764 8.781 5.402 17.826 4.648 27.19-.59-4.565-1.375-9.106-2.432-13.609-1.057-4.498-2.389-8.934-4.082-13.295.346 3.093.686 6.183.861 9.281.176 3.106.264 6.217.16 9.328-.1 3.043-.23 6.084-.633 9.107h-.26c-.867-7.814-1.729-15.631-2.592-23.446-.063-.001-.076-.003-.141-.005-.572 5.241-1.334 10.482-1.334 15.724v-1.185c0-6.927-.371-13.854-.348-20.78.002-.704-.18-1.409-.174-2.112 0-.179-.061-.338-.311-.508a8039.583 8039.583 0 0 1-5.873 32.313h-.691c-.906-9.445-1.813-19.587-2.719-29.332-.061-.001-.119-.019-.18-.019l-2.729 29.351h-1.363c-1.225-11.938-.652-23.849 1.59-35.739-2.621 6.643-4.529 13.429-5.967 20.354-1.047-2.827-2.125-5.634-3.475-8.354a63.695 63.695 0 0 0-4.645-7.933c-.043.016-.09.03-.137.046.25.609.492 1.222.75 1.83.906 2.161 1.602 4.377 2.258 6.602.102.336.123.678 0 1.019-.855 2.338-1.543 4.716-2.238 7.091-.17.573-.307 1.154-.457 1.729l-.15.012-6.184-16.677-.111.013c0 .257-.025.516.006.771.338 2.646.686 5.289 1.025 7.936.395 3.054.781 6.108 1.174 9.163l1.189 9.267c.104.803.225 1.603.326 2.404.021.156.014.313.016.47h-1.465c-.008-.055-.02-.108-.025-.163-.467-4.102-.9-8.206-1.352-12.311-.314-2.89-.633-5.777-.953-8.666a1.562 1.562 0 0 0-.172-.563c-.238.494-.217 1.027-.281 1.546.051.378-.055.741-.146 1.109-.135-.711-.314-1.416-.283-2.144-.039-.182.016-.38-.234-.699-.438 3.968-.865 7.794-1.287 11.62-.492-.995-.994-1.953-.861-3.066.178-1.485.271-2.979.402-4.467.021-.229.037-.457-.014-.694-.48 1.082-.717 2.218-1.104 3.354a115.668 115.668 0 0 0-6.35-22.325c.586 3.524 1.17 7.051 1.551 10.598.389 3.593.619 7.194.67 10.803.055 3.592-.025 7.182-.338 10.766.037.282.021.562-.1.835-.137-.306-.141-.618-.111-.937-.383-4.884-.777-9.768-1.154-14.651-.27-3.479-.508-6.96-.773-10.439-.248-3.257-.514-6.521-.77-9.776-.021-.238-.021-.727-.031-.727h-.236c-.025 1-.16 2.745-.268 4.112-.266 3.34-.521 6.685-.781 10.023-.219 2.811-.439 5.621-.652 8.432-.266 3.493-.521 6.989-.789 10.484-.201 2.649-.41 5.298-.619 7.947h-.689c-.617-5.4-1.238-10.801-1.859-16.2l-.184-.005-1.627 14.31c.02.581-.113 1.146-.264 1.717-.096-.535-.205-1.068-.158-1.614-.879-11.297-.826-22.591.045-33.895-2.039 7.469-3.502 15.021-4.662 22.649-1.914-6.253-4.514-12.261-8.121-17.929.729 2.215 1.551 4.405 2.18 6.646a74.035 74.035 0 0 1 1.611 6.905c.418 2.31.734 4.626.902 6.958.168 2.327.299 4.655.129 6.998-1.184-10.1-5.021-19.328-11.746-27.619-.188-.232-.34-.504-.635-.666-.066-.036-.127-.081-.227-.011 5.846 10.186 7.969 20.767 6.186 31.754h-1.797l-1.846-16.199-.176-.005-1.848 16.204h-.393a11.435 11.435 0 0 1-.143-.686c-.49-2.9-.879-5.818-1.166-8.747-.334-3.563-.563-7.132-.563-10.709.002-1.236.029-2.475-.004-3.712-.014-.47.139-.861.418-1.238a1.852 1.852 0 0 1-.084-.064c-.455.179-.281-.164-.281-.287-.018-1.341.072-2.679.158-4.018.127-1.989.27-3.979.516-5.959.014-.116.002-.235.002-.406-.262.129-.262.334-.311.491-.936 2.889-1.801 5.793-2.506 8.729a470.79 470.79 0 0 0-.943 4.032.774.774 0 0 1-.258.398 86.308 86.308 0 0 0-3.877 3.729c-.051.051-.064.127-.102.191l-.172-.064c-.34-3.688-.678-7.381-1.021-11.071l-.154-.004c-.061.581-.127 1.162-.178 1.744a2971.61 2971.61 0 0 0-1.072 11.971 1.102 1.102 0 0 1-.25.617c-1.771 2.209-3.33 4.522-4.545 7.009-.059.121-.146.231-.305.469-1.197-6.905-2.82-13.6-5.066-20.184 1.104 9.243 1.387 18.497.74 27.768h-.588l-2.582-23.46-.188-.004c-.67 6.05-1.475 12.1-2.143 18.147l-.219-.003V8.654c-1.934 10.781-3.711 21.563-5.643 32.347h-.682c-.906-9.756-1.816-19.67-2.723-29h-.178c-.9 9.772-1.805 19.342-2.707 29h-1.506c-1.08-11.938-.492-23.868 1.727-35.747-2.854 7.325-4.857 14.804-6.293 22.439-.293-.649-.65-1.277-.68-1.991a229.842 229.842 0 0 1 .018-18.564c.066-1.648.105-3.302.223-4.949a.562.562 0 0 0-.078-.354c-1.361 5.641-2.344 11.332-3.264 17.106-.381-.285-.451-.649-.609-.953C752.12 11.544 747.747 5.613 742.308.3c-.088-.086-.242-.299-.188-.299h-.232c.748 1 1.514 2.166 2.252 3.253a69.954 69.954 0 0 1 6.973 13.01c1.361 3.335 2.332 6.761 3.277 10.198.58 2.131.303 4.22.104 6.339a424.02 424.02 0 0 0-.688 8.2h-1.402c-.527-4.297-1.055-8.595-1.58-12.893l-.178-.008-1.573 12.9h-1.721c.01-.258.02-.506.035-.733.203-3.177.65-6.322 1.469-9.426.807-3.069 1.479-6.065 2.76-9.021-2.088 2.471-3.617 5.192-5.617 7.937V10.012c0 3.746-1.428 7.494-2.283 11.239-.674 2.96-1.234 5.917-1.904 8.877-.824 3.622-1.527 7.248-2.34 10.872h-.686a148.186 148.186 0 0 1 .189-18.552l-.176-.022c-.225.753-.463 1.503-.668 2.261-.461 1.718-.943 3.433-1.346 5.161-.539 2.319-1.016 4.649-1.502 6.979-.188.894-.33 1.795-.494 2.691.018.274-.053.537-.162.862-.279-.322-.27-.646-.279-.967-.354-1.826-.707-3.652-1.057-5.479-.445-2.316-.887-4.636-1.33-6.952-.412-2.132-.824-4.263-1.232-6.394-.385-1.996-.893-3.993-1.277-5.989-.051-.282-.453-.562-.453-.834v16.088c-2-6.9-4.533-13.535-8.41-19.91-.137.392.164.61.229.854.068.267.221.524.314.784 1.426 3.785 2.48 7.655 3.23 11.582.336 1.759.648 3.525.764 5.311.156.575.229 1.169.217 1.765l.006.203.006.106c-.012.063-.018.127-.025.19.053.469.256.928.102 1.473-.076-.364-.264-.652-.156-.979.072-.221-.078-.354-.229-.489-.631-2.888-1.639-5.677-2.836-8.415-1.795-4.116-4.139-7.987-7.002-11.616-.463-.592-.955-1.169-1.436-1.752-.035-.038-.086-.063-.199-.084 5.969 10.369 8.119 21.073 6.314 32.126h-2.609c-.607-5.242-1.217-10.455-1.82-16h-.176c-.455 4-.91 7.854-1.365 11.832-.834-5.221-1.229-10.51-1.309-15.769-.076-5.254.188-10.521.748-15.753-.061-.009-.119-.03-.182-.04-.262.813-.549 1.611-.783 2.429a458.189 458.189 0 0 0-1.76 6.291c-.238.867-.428 1.743-.623 2.618-.066.294-.176.55-.436.766-1.391 1.158-2.709 2.374-4.016 3.605-.074.071-.172.128-.348.256l-.887-9.633c-.232.022-.191.149-.201.24-.33 3.699-.656 7.398-.98 11.099a1.825 1.825 0 0 1-.496 1.127c-2.344 2.609-4.357 5.398-5.912 8.435-.018.028-.053.047-.166.141-.158-4.999-.018-9.928.172-14.859-2.314 7.625-3.939 15.349-4.947 23.172.002.015-.002.03-.002.045h-.438c-.139-1.916-.377-3.824-.557-5.736-.117-1.234.104-2.468.254-3.696.459-3.646 1.373-7.205 2.684-10.688.982-2.626 2.232-5.156 3.645-7.629.078-.137.17-.269.242-.406.021-.04.021-.092-.021-.16-3.482 3.896-6.18 8.186-8.383 12.76-1.438-6.4-3.248-12.697-5.695-18.846-.051.01-.1.018-.15.025.074.442.139.886.229 1.326.914 4.485 1.479 9.011 1.807 13.555.357 4.976.428 9.958.102 14.942-.1 1.526-.365 3.037-.555 4.554h-1.408l-2.59-27.988-.18-.003c-.865 9.33-1.73 18.661-2.6 27.991h-.91A384.125 384.125 0 0 1 673 10.38v20.762c-3-2.089-2.154-4.192-3-6.255-.846-2.066-2.18-4.098-3.25-6.085-1.072-1.996-2.428-3.947-3.83-5.801 3.762 8.781 5.34 17.826 4.588 27.19a135.017 135.017 0 0 0-2.463-13.609 100.064 100.064 0 0 0-4.1-13.295c.346 3.093.684 6.183.857 9.281.172 3.106.256 6.217.156 9.328-.1 3.043-.238 6.084-.641 9.107h-.262l-2.59-23.446-.188-.005c-.635 5.775-1.355 11.55-1.99 17.325.018.586-.291 1.157-.291 1.548v-4.334c0-6.927.129-13.854.148-20.78.002-.704.068-1.408.074-2.112.002-.179.068-.337-.184-.508-1.922 10.741-3.83 21.879-5.748 32.313h-.691c-.906-9.445-1.813-19.587-2.719-29.332-.061-.001-.117-.018-.178-.018l-2.729 29.35h-1.365c-1.223-11.938-.652-23.849 1.59-35.739-2.619 6.643-4.529 13.43-5.969 20.354-1.045-2.827-2.123-5.633-3.471-8.354a63.579 63.579 0 0 0-4.646-7.933l-.137.046c.25.61.494 1.222.748 1.83.908 2.161 1.605 4.377 2.262 6.602.1.336.121.679-.002 1.019-.855 2.338-1.543 4.716-2.238 7.091-.17.573-.307 1.154-.457 1.729l-.15.012c-2.061-5.56-4.123-11.117-6.182-16.677l-.111.013c0 .257-.025.516.006.771.336 2.646.684 5.289 1.023 7.936.396 3.054.781 6.108 1.176 9.163l1.188 9.267c.102.803.225 1.603.328 2.404.02.156.012.313.014.47h-1.465c-.008-.055-.02-.108-.023-.163-.469-4.102-.902-8.206-1.352-12.311-.316-2.89-.635-5.777-.955-8.666a1.505 1.505 0 0 0-.172-.563c-.236.494-.217 1.027-.281 1.546.049.378-.051.741-.146 1.109-.135-.711-.314-1.416-.281-2.144-.039-.182.016-.38-.236-.699l-1.285 11.62c-.496-.995-.998-1.953-.861-3.066.176-1.485.271-2.979.4-4.467.021-.229.039-.457-.012-.694-.555 1.24-.771 2.552-1.275 3.854-.879-2.359-1.766-4.721-2.645-7.08l-.158.033c.057.573.098 1.147.174 1.721.445 3.41.883 6.819 1.359 10.228.113.825-.08 1.609-.234 2.399-.48 2.437-.84 4.887-1.152 7.343h-2.379c-.002-.066 0-.134-.002-.2-.01-.188.109-.375.115-.563-.736-12.561-3.283-24.809-8-36.707.586 3.524 1.193 7.051 1.576 10.598.389 3.593.631 7.194.68 10.803.055 3.593-.018 7.182-.328 10.766.049.281.016.571-.096.835-.139-.306-.141-.618-.107-.937-.389-4.884-.779-9.768-1.158-14.651-.27-3.479-.506-6.96-.773-10.439-.246-3.257-.51-6.521-.768-9.776-.02-.238-.021-.727-.031-.727h-.234c-.023 1-.16 2.745-.268 4.112-.27 3.34-.523 6.685-.783 10.023-.217 2.811-.438 5.621-.65 8.432-.268 3.493-.521 6.989-.789 10.484-.203 2.649-.414 5.298-.621 7.947h-.689c-.619-5.4-1.236-10.801-1.857-16.2l-.182-.005c-.545 4.771-1.086 9.54-1.631 14.31.02.581-.111 1.146-.262 1.717-.096-.535-.207-1.068-.158-1.614-.879-11.297-.826-22.591.043-33.895-2.037 7.469-3.504 15.021-4.662 22.649-1.914-6.253-4.512-12.261-8.121-17.929.727 2.215 1.553 4.405 2.178 6.646a74.698 74.698 0 0 1 1.615 6.905c.42 2.31.734 4.626.9 6.958.168 2.327.299 4.655.131 6.998-1.184-10.099-5.021-19.328-11.746-27.619-.189-.232-.344-.504-.635-.666-.064-.036-.129-.081-.229-.011 5.842 10.186 7.969 20.767 6.186 31.754h-1.797c-.615-5.4-1.229-10.8-1.846-16.199l-.174-.005c-.613 5.362-1.225 10.733-1.852 16.204h-.389a10.06 10.06 0 0 1-.143-.686c-.48-2.905-.887-5.82-1.164-8.746-.338-3.563-.564-7.133-.563-10.709.002-1.237.029-2.476-.004-3.713-.016-.47.137-.861.418-1.238-.029-.021-.061-.042-.09-.064-.453.179-.277-.164-.279-.287-.014-1.341.074-2.679.162-4.018.125-1.989.264-3.979.51-5.959.016-.116.002-.235.002-.406-.256.129-.256.334-.307.491-.936 2.889-1.801 5.793-2.504 8.729a405.921 405.921 0 0 0-.947 4.032.75.75 0 0 1-.254.398 85.297 85.297 0 0 0-3.879 3.729c-.049.051-.064.127-.102.191-.059-.021-.111-.043-.172-.064-.34-3.688-.684-7.381-1.021-11.07l-.154-.005c-.061.581-.129 1.162-.18 1.744-.359 3.989-.723 7.979-1.074 11.971-.016.226-.102.44-.242.617-1.773 2.209-3.334 4.522-4.547 7.009-.061.122-.148.231-.305.469-1.201-6.905-2.824-13.6-5.07-20.184 1.104 9.243 1.389 18.497.742 27.768h-.586c-.859-7.82-1.725-15.641-2.584-23.46l-.188-.004c-.67 6.05-1.629 12.1-2.293 18.147l-.373-.003V10.588c-2 10.138-3.555 20.275-5.369 30.412h-.666c-.902-9.756-1.801-19.67-2.699-29h-.18c-.902 9.772-1.811 19.342-2.711 29h-1.506c-1.082-11.938-.492-23.868 1.729-35.747-2.854 7.325-4.859 14.804-6.295 22.439-.291-.649-.648-1.277-.676-1.991-.246-6.186-.24-12.379.018-18.564.066-1.648.102-3.302.219-4.949a.548.548 0 0 0-.076-.354c-1.363 5.641-2.342 11.332-3.262 17.106-.381-.285-.455-.649-.615-.952-3.471-6.445-7.848-12.375-13.281-17.689-.088-.086-.243-.299-.188-.299h-.238c.754 1 1.516 2.166 2.254 3.253a69.845 69.845 0 0 1 6.975 13.01c1.359 3.335 2.332 6.761 3.275 10.198.586 2.131.305 4.22.104 6.339-.26 2.73-.479 5.465-.686 8.2h-1.402c-.527-4.297-1.057-8.595-1.582-12.893l-.178-.008c-.523 4.294-1.053 8.6-1.58 12.899h-1.723c.01-.258.02-.506.035-.733.203-3.177.654-6.323 1.469-9.426a62.722 62.722 0 0 1 3.107-9.021c-2.082 2.472-2.271 5.193-5.271 7.938V9.208c-1 .153-.123.396-.168.584-.871 3.819-1.699 7.64-2.566 11.458-.68 2.96-1.357 5.917-2.027 8.877-.822 3.622-1.58 7.248-2.395 10.872h-.74a147.237 147.237 0 0 1 .184-18.552c-.059-.008-.115-.016-.176-.022-.223.753-.463 1.503-.666 2.26-.463 1.719-.945 3.434-1.35 5.162-.539 2.319-1.014 4.649-1.5 6.979-.188.894-.334 1.795-.498 2.691.02.274-.051.537-.16.862-.275-.322-.27-.646-.277-.967l-1.061-5.479c-.441-2.316-.885-4.636-1.328-6.953-.41-2.131-.824-4.262-1.23-6.393-.383-1.996-.547-3.993-.934-5.989a4.336 4.336 0 0 1-.105-.834v16.088c-1-6.9-4.879-13.536-8.76-19.911-.133.393-.004.611.059.854.068.267.131.523.229.784 1.426 3.785 2.432 7.654 3.184 11.582.334 1.759.633 3.525.748 5.311.15.581.217 1.168.199 1.764.002.068 0 .136 0 .203.002.036.004.071.004.107l-.027.189c.055.47.26.929.102 1.474-.078-.364-.264-.652-.156-.98.07-.22-.076-.354-.229-.488-.629-2.888-1.639-5.678-2.836-8.415-1.795-4.116-4.139-7.987-6.998-11.616-.467-.592-.957-1.169-1.439-1.752-.029-.038-.084-.063-.195-.084C491.844 19.243 494 29.946 492.192 41h-2.613c-.605-5.242-1.213-10.455-1.818-16h-.176c-.453 4-.908 7.854-1.363 11.832-.834-5.222-1.23-10.511-1.307-15.769-.08-5.254.186-10.521.748-15.753-.063-.009-.123-.031-.184-.04-.262.813-.547 1.611-.781 2.428a472.934 472.934 0 0 0-1.762 6.291c-.236.867-.426 1.743-.623 2.618-.066.294-.178.55-.436.767-1.39 1.157-2.71 2.374-4.014 3.605-.075.071-.171.127-.35.255-.299-3.263-.594-6.444-.886-9.632-.231.022-.192.149-.201.24-.33 3.699-.659 7.398-.98 11.098-.03.422-.206.82-.497 1.127-2.343 2.61-4.36 5.399-5.915 8.436-.015.027-.052.047-.164.141-.16-4.999-.015-9.928.17-14.859a142.015 142.015 0 0 0-4.944 23.172l-.004.043h-.438c-.137-1.916-.376-3.824-.558-5.736-.116-1.235.103-2.468.257-3.697.457-3.646 1.37-7.205 2.678-10.688.986-2.626 2.238-5.156 3.646-7.629.079-.137.167-.27.245-.406.022-.04.021-.092-.021-.16-3.486 3.896-6.183 8.186-8.384 12.759-1.438-6.399-3.25-12.696-5.696-18.845-.052.01-.104.018-.153.025.075.441.143.886.229 1.326.915 4.485 1.479 9.011 1.807 13.555.356 4.976.428 9.958.102 14.941-.1 1.527-.363 3.037-.553 4.555h-1.412l-2.587-27.988-.181-.003L450.475 41h-.941c-1.988-10.315-4.539-20.631-5.539-30.946v21.083c-1-2.089-1.502-4.192-2.348-6.255-.849-2.065-1.854-4.098-2.924-6.085-1.071-1.996-2.266-3.947-3.667-5.801 3.762 8.781 5.421 17.826 4.667 27.191-.589-4.566-1.361-9.107-2.418-13.61-1.059-4.498-2.386-8.933-4.08-13.295.346 3.093.69 6.183.866 9.282.176 3.105.263 6.216.16 9.327-.1 3.044-.229 6.085-.631 9.107h-.261c-.865-7.813-1.728-15.631-2.59-23.446l-.19-.005c-.613 5.597-.987 11.192-1.586 16.789v-2.25c0-6.927-.219-13.854-.197-20.78.004-.703-.103-1.408-.097-2.112.001-.179-.023-.337-.271-.507A7386.15 7386.15 0 0 1 422.593 41h-.691c-.907-9.445-1.813-19.587-2.719-29.332-.06-.001-.117-.018-.178-.018L416.278 41h-1.363c-1.223-11.938-.653-23.849 1.589-35.739-2.62 6.643-4.53 13.43-5.97 20.354-1.044-2.827-2.123-5.633-3.469-8.354a63.972 63.972 0 0 0-4.646-7.933l-.137.046c.25.61.493 1.222.75 1.83.907 2.161 1.601 4.377 2.258 6.602.1.336.124.679-.002 1.019-.854 2.338-1.541 4.716-2.238 7.091-.169.573-.306 1.154-.455 1.729l-.149.012-6.186-16.677-.111.013c0 .257-.027.516.005.771.336 2.646.686 5.289 1.024 7.936.395 3.054.78 6.108 1.173 9.163l.148 1.155c-1.289-9.002-3.584-17.837-7.013-26.484.586 3.524 1.169 7.051 1.551 10.598.387 3.593.617 7.194.668 10.803.028 1.919.014 3.838-.049 5.755-.482-.979-.97-1.926-.838-3.021.178-1.485.272-2.979.404-4.467.02-.229.039-.457-.013-.694-.383.858-.605 1.752-.875 2.651-.11-1.404-.224-2.809-.332-4.212-.269-3.479-.509-6.96-.774-10.439-.248-3.257-.514-6.521-.769-9.776-.021-.238-.022-.727-.032-.727h-.235c-.026 1-.161 2.745-.27 4.112-.264 3.34-.521 6.685-.78 10.023-.218 2.811-.439 5.621-.652 8.432-.266 3.493-.522 6.989-.79 10.484-.203 2.649-.412 5.298-.619 7.947h-.691l-1.858-16.2-.182-.005c-.542 4.77-1.087 9.54-1.63 14.31.018.581-.113 1.146-.262 1.717-.097-.535-.207-1.068-.158-1.614-.88-11.297-.827-22.591.042-33.895-2.039 7.469-3.504 15.021-4.662 22.649-1.913-6.253-4.513-12.261-8.121-17.929.727 2.215 1.551 4.405 2.178 6.646.64 2.284 1.196 4.58 1.615 6.905.417 2.31.734 4.626.901 6.958.168 2.327.299 4.655.129 6.998-1.183-10.1-5.02-19.328-11.746-27.619-.188-.232-.341-.504-.634-.666-.066-.036-.129-.081-.228-.011 5.845 10.186 7.968 20.767 6.185 31.754h-1.796l-1.845-16.199-.176-.005-1.847 16.204h-.39a10.054 10.054 0 0 1-.142-.686c-.49-2.9-.879-5.818-1.165-8.746-.337-3.563-.566-7.133-.563-10.71.001-1.236.029-2.475-.004-3.712-.013-.47.136-.861.417-1.238a1.954 1.954 0 0 1-.087-.064c-.451.179-.28-.164-.281-.287-.014-1.341.077-2.679.163-4.018.125-1.989.265-3.979.512-5.959.014-.116.002-.235.002-.406-.259.129-.259.334-.31.491-.934 2.889-1.798 5.793-2.504 8.729-.322 1.344-.634 2.688-.947 4.032a.738.738 0 0 1-.254.398 84.22 84.22 0 0 0-3.877 3.729c-.05.051-.068.127-.101.191l-.172-.064c-.342-3.688-.681-7.381-1.021-11.07l-.155-.005c-.06.581-.127 1.162-.179 1.744-.36 3.989-.721 7.979-1.073 11.971a1.1 1.1 0 0 1-.248.617c-1.771 2.209-3.332 4.522-4.542 7.009-.061.122-.152.23-.308.469-1.199-6.905-2.821-13.6-5.067-20.184 1.104 9.243 1.388 18.497.742 27.768h-.589l-2.584-23.46-.186-.004c-.668 6.05-1.489 12.1-2.156 18.147l-.237-.003V11.117c-2 9.961-3.842 19.922-5.625 29.883h-.673c-.904-9.756-1.808-19.67-2.712-29h-.178c-.902 9.772-1.806 19.342-2.708 29h-1.505c-1.082-11.938-.494-23.868 1.727-35.747-2.855 7.325-4.859 14.804-6.295 22.44-.291-.65-.649-1.278-.677-1.992-.25-6.188-.233-12.378.017-18.564.067-1.648.103-3.302.22-4.949a.548.548 0 0 0-.078-.354c-1.362 5.641-2.342 11.332-3.262 17.106-.379-.285-.451-.649-.614-.952-3.468-6.445-7.844-12.375-13.283-17.689-.086-.086-.241-.299-.187-.299h-.237c.753 1 1.514 2.166 2.254 3.253a68.904 68.904 0 0 1 3.643 5.989c-.782.152-.589.375-.63.551-.87 3.819-2.017 7.64-2.888 11.458-.675 2.96-1.514 5.917-2.185 8.877-.82 3.622-1.736 7.248-2.549 10.872h-.742c-.33-6.182-.269-12.378.182-18.552l-.175-.022c-.224.753-.464 1.503-.667 2.26-.462 1.719-.945 3.434-1.348 5.162-.539 2.319-1.015 4.649-1.502 6.979-.188.894-.331 1.795-.495 2.691.018.274-.052.537-.161.862-.279-.322-.273-.646-.28-.967-.352-1.826-.708-3.652-1.057-5.479-.446-2.316-.886-4.636-1.331-6.953-.409-2.131-.824-4.262-1.232-6.393-.383-1.996-.906-3.993-1.292-5.989-.056-.283-.474-.562-.474-.834v16.088c-2-6.9-4.518-13.536-8.394-19.911-.136.393.173.611.237.854.069.267.222.523.319.784 1.425 3.785 2.481 7.654 3.232 11.582.335 1.759.653 3.525.767 5.311.152.581.231 1.168.212 1.764.002.068.007.136.009.203l.005.107-.028.189c.056.47.258.929.103 1.474-.079-.364-.264-.652-.156-.98.07-.22-.078-.354-.229-.488-.628-2.888-1.639-5.678-2.836-8.415-1.797-4.116-4.138-7.987-7-11.616-.465-.592-.956-1.169-1.439-1.752-.031-.038-.084-.063-.199-.084 5.97 10.369 8.124 21.072 6.318 32.126h-2.612c-.608-5.242-1.215-10.455-1.821-16h-.176c-.454 4-.908 7.854-1.364 11.832-.833-5.222-1.23-10.511-1.307-15.769-.077-5.254.186-10.521.748-15.753-.059-.009-.12-.031-.181-.04-.262.813-.549 1.611-.783 2.429a458.189 458.189 0 0 0-1.76 6.291c-.237.866-.425 1.742-.624 2.617-.066.294-.175.551-.434.767-1.389 1.157-2.71 2.374-4.014 3.605-.075.071-.17.127-.347.255-.301-3.263-.595-6.444-.887-9.632-.232.022-.193.149-.201.24-.329 3.699-.658 7.398-.98 11.098a1.857 1.857 0 0 1-.495 1.127c-2.345 2.61-4.362 5.399-5.917 8.436-.015.028-.053.047-.164.141-.161-4.999-.017-9.928.169-14.859a142.018 142.018 0 0 0-4.945 23.172l-.002.045h-.436c-.137-1.916-.377-3.824-.558-5.736-.117-1.235.102-2.468.255-3.697.458-3.646 1.372-7.204 2.679-10.688.986-2.626 2.238-5.156 3.646-7.629.078-.137.167-.27.244-.406.023-.04.021-.092-.02-.16-3.486 3.896-6.18 8.186-8.384 12.759-1.438-6.399-3.249-12.696-5.696-18.845-.051.009-.102.019-.153.025.076.441.142.886.231 1.326.915 4.485 1.479 9.011 1.805 13.555.357 4.976.428 9.958.102 14.941-.101 1.527-.365 3.037-.554 4.555h-1.411l-2.588-27.988-.18-.003-2.6 27.991h-.905c-1.852-10.265-4.304-20.528-5.304-30.792V31.14c-1-2.089-1.638-4.193-2.482-6.255-.851-2.066-1.923-4.098-2.992-6.085a44.892 44.892 0 0 0-3.7-5.801c3.761 8.78 5.405 17.825 4.651 27.19-.59-4.565-1.37-9.106-2.429-13.609-1.056-4.498-2.389-8.934-4.083-13.295.344 3.093.689 6.183.864 9.281.175 3.106.261 6.217.16 9.328-.099 3.043-.232 6.084-.634 9.107h-.261l-2.589-23.446-.19-.005c-.633 5.775-1.37 11.55-2.004 17.325.014.586-.311 1.157-.311 1.548v-4.334c0-6.927.145-13.854.167-20.78.003-.704.08-1.409.084-2.113.001-.178.068-.337-.18-.507-1.923 10.741-3.827 21.878-5.746 32.313h-.692c-.905-9.445-1.812-19.587-2.717-29.332-.06-.001-.118-.019-.179-.019-.909 9.786-1.819 19.566-2.727 29.351h-1.364c-1.222-11.938-.654-23.85 1.589-35.739-2.62 6.642-4.531 13.429-5.969 20.354-1.044-2.827-2.123-5.634-3.47-8.354a63.9 63.9 0 0 0-4.646-7.933l-.136.046c.25.609.494 1.222.75 1.83.907 2.161 1.6 4.377 2.259 6.602.099.336.123.678-.001 1.019-.855 2.338-1.542 4.716-2.241 7.091-.167.572-.303 1.153-.454 1.729l-.15.011c-2.063-5.559-4.123-11.116-6.185-16.676l-.111.013c0 .257-.026.516.005.771.336 2.646.686 5.289 1.026 7.936.394 3.054.782 6.108 1.172 9.162l1.19 9.268c.104.803.224 1.603.328 2.404.021.156.012.313.014.47h-1.463c-.008-.056-.02-.108-.026-.163-.467-4.103-.901-8.206-1.351-12.312-.316-2.889-.633-5.776-.954-8.666a1.567 1.567 0 0 0-.171-.563c-.238.494-.215 1.027-.282 1.546.05.378-.054.741-.148 1.109-.134-.711-.316-1.416-.283-2.144-.04-.182.016-.38-.233-.7l-1.289 11.621c-.492-.996-.995-1.954-.861-3.066.178-1.485.272-2.979.403-4.467.02-.229.04-.457-.013-.694-.481 1.082-.717 2.218-1.104 3.354a116.132 116.132 0 0 0-6.348-22.325c.586 3.524 1.167 7.051 1.551 10.598.388 3.593.618 7.194.669 10.803.052 3.592-.026 7.182-.338 10.766.047.281.013.571-.097.835-.138-.306-.142-.618-.112-.937-.387-4.884-.779-9.768-1.156-14.652-.269-3.479-.509-6.96-.774-10.438-.248-3.257-.514-6.521-.77-9.776-.019-.238-.021-.727-.031-.727h-.236c-.026 1-.161 2.745-.27 4.112-.264 3.34-.52 6.685-.779 10.023-.219 2.811-.44 5.621-.654 8.431-.265 3.494-.521 6.99-.79 10.485-.201 2.649-.411 5.298-.619 7.947h-.691l-1.858-16.2-.182-.005-1.629 14.31c.017.581-.114 1.146-.263 1.716-.096-.534-.206-1.067-.158-1.613-.879-11.297-.826-22.591.043-33.895-2.04 7.468-3.504 15.021-4.662 22.649-1.915-6.253-4.514-12.261-8.121-17.93.726 2.216 1.55 4.406 2.176 6.647.64 2.284 1.197 4.58 1.616 6.905.417 2.31.734 4.626.901 6.958.167 2.327.298 4.654.128 6.998-1.182-10.1-5.02-19.328-11.746-27.619-.188-.232-.341-.504-.635-.666-.064-.036-.129-.081-.227-.011 5.844 10.186 7.968 20.767 6.184 31.754h-1.796c-.616-5.4-1.229-10.8-1.844-16.199l-.176-.005-1.848 16.204h-.39a8.97 8.97 0 0 1-.141-.686c-.491-2.9-.879-5.818-1.165-8.747-.337-3.563-.566-7.132-.563-10.709.002-1.236.029-2.475-.004-3.712-.013-.47.137-.861.417-1.239-.029-.021-.058-.041-.086-.063-.453.179-.28-.164-.281-.287-.014-1.341.076-2.679.161-4.018.126-1.989.267-3.979.512-5.959.015-.116.002-.235.002-.406-.259.129-.259.334-.309.491-.934 2.889-1.798 5.793-2.504 8.729-.323 1.343-.634 2.688-.946 4.032a.752.752 0 0 1-.253.397 84.755 84.755 0 0 0-3.878 3.729c-.05.051-.067.127-.101.191l-.173-.064-1.02-11.071-.155-.004c-.06.581-.127 1.162-.18 1.744-.361 3.989-.72 7.979-1.072 11.97a1.1 1.1 0 0 1-.249.618c-1.77 2.209-3.332 4.522-4.542 7.008-.06.122-.151.232-.308.47-1.199-6.905-2.821-13.6-5.066-20.184 1.104 9.243 1.388 18.497.743 27.768h-.589l-2.584-23.46c-.062-.001.027-.003-.035-.004-.626 5.687-.543 11.371-1.543 17.058V8.634c0-.004-.432-.009-.477-.013-1.933 10.793-4.199 21.587-6.132 32.38h-.683c-.905-9.756-1.816-19.67-2.719-29h-.177c-.902 9.772-1.806 19.342-2.709 29h-1.504c-1.083-11.938-.495-23.868 1.726-35.747-2.854 7.325-4.859 14.804-6.294 22.439-.291-.649-.65-1.277-.678-1.992a229.359 229.359 0 0 1 .017-18.563c.066-1.649.104-3.302.219-4.949a.525.525 0 0 0-.078-.354c-1.361 5.641-2.341 11.332-3.261 17.106-.379-.286-.452-.649-.614-.953C88.153 11.544 83.775 5.613 78.336.3c-.087-.086-.241-.299-.187-.299h-.237c.752 1 1.513 2.166 2.254 3.253a69.787 69.787 0 0 1 6.975 13.01c1.361 3.335 2.331 6.761 3.275 10.198.584 2.131.305 4.22.104 6.339a441.214 441.214 0 0 0-.686 8.2h-1.402L86.85 28.108l-.175-.008L85.092 41h-1.718c.008-.258.018-.506.032-.733.204-3.177.654-6.322 1.468-9.426.807-3.069.964-6.065 2.246-9.021-2.088 2.471-3.135 5.192-6.135 7.937V10.012c-1 3.746-.914 7.494-1.767 11.239-.676 2.96-.978 5.917-1.649 8.877-.821 3.622-1.267 7.248-2.081 10.872h-.681a146.862 146.862 0 0 1 .186-18.552l-.172-.022c-.224.753-.463 1.503-.667 2.261-.462 1.718-.945 3.433-1.347 5.161-.539 2.319-1.014 4.649-1.502 6.979-.187.894-.331 1.795-.495 2.691.018.274-.052.537-.162.862-.278-.322-.272-.646-.279-.967-.351-1.826-.708-3.652-1.057-5.479-.445-2.316-.886-4.636-1.331-6.952-.409-2.132-.823-4.263-1.232-6.394-.383-1.996-.907-3.993-1.292-5.989-.055-.282-.472-.562-.472-.834v16.088c-2-6.9-4.518-13.535-8.397-19.91-.133.392.176.61.238.854.069.267.223.524.32.784 1.425 3.785 2.48 7.655 3.232 11.582.334 1.759.652 3.525.767 5.311.154.575.226 1.169.211 1.765.002.067.007.135.009.203.001.035.005.07.006.106l-.029.19c.054.469.259.928.104 1.473-.079-.364-.265-.652-.156-.979.071-.221-.079-.354-.229-.489-.628-2.888-1.638-5.677-2.835-8.415-1.797-4.116-4.138-7.987-6.999-11.616-.467-.592-.958-1.169-1.44-1.752-.031-.038-.085-.063-.199-.084C55.558 19.243 57.71 29.947 55.905 41h-2.594c-.608-5.242-1.216-10.455-1.822-16h-.176c-.453 4-.908 7.854-1.362 11.832-.834-5.221-1.231-10.51-1.309-15.769-.069-5.261.181-10.521.749-15.753-.06-.009-.121-.03-.18-.04-.264.813-.549 1.611-.784 2.429a454.283 454.283 0 0 0-1.761 6.291c-.237.867-.425 1.743-.623 2.618-.066.294-.176.55-.435.766-1.389 1.158-2.71 2.374-4.013 3.605-.076.071-.171.128-.348.256-.3-3.264-.594-6.445-.886-9.633-.232.022-.193.149-.201.24-.329 3.699-.658 7.398-.981 11.099a1.847 1.847 0 0 1-.496 1.127c-2.344 2.609-4.36 5.398-5.915 8.435-.015.028-.052.047-.165.141-.16-4.999-.016-9.928.17-14.859a142.018 142.018 0 0 0-4.945 23.172c0 .015-.002.03-.001.045h-.438c-.138-1.916-.376-3.824-.558-5.736-.116-1.234.102-2.468.257-3.696.457-3.646 1.371-7.205 2.678-10.688.986-2.626 2.237-5.156 3.646-7.629.077-.137.166-.269.243-.406.022-.04.02-.092-.021-.16-3.485 3.896-6.18 8.186-8.383 12.76-1.438-6.4-3.249-12.697-5.696-18.846-.051.01-.102.018-.153.025.076.442.141.886.229 1.326.915 4.485 1.479 9.011 1.806 13.555.358 4.976.428 9.958.102 14.942-.101 1.526-.365 3.037-.553 4.554h-1.411l-2.588-27.988-.18-.003-2.599 27.991H13.3C11.461 30.793 11 20.584 8 10.376v20.762c-1-2.089-1.639-4.192-2.483-6.255-.85-2.066-1.854-4.098-2.923-6.085-.799-1.487-1.578-2.949-2.594-4.364v1.181c3.048 7.96 4.259 16.137 3.58 24.574zm923.618-17.115c.99-1.479 1.965-2.962 3.1-4.359a3.15 3.15 0 0 1 .135-.15c-1.268 6.472-2.18 12.969-2.676 19.515-.166-1.711-.34-3.421-.494-5.133-.229-2.445-.414-4.896-.689-7.338-.105-.931.081-1.728.624-2.535zm-3.891 9.205c.023.04.01.055-.043.038-.006-.003-.004-.025-.006-.038h.049zm-.508 1.89l.313-1.455c.119.8.055 1.591-.117 2.376-.117 1.438-.236 2.876-.355 4.314-.257-1.756-.016-3.494.159-5.235zm-68.81-9.828l.303-3.387.096-1.124c.262.357.299.637.314.92 1.037 4.704 1.391 9.454 1.223 14.239a27.947 27.947 0 0 1-.395 3.978c-.256.053-.26-.133-.301-.244a322.753 322.753 0 0 1-1.541-4.151 1.827 1.827 0 0 1-.086-.61c-.002-3.211.104-6.418.387-9.621zm-57.559 1.646c.742-1.532 1.635-2.996 2.605-4.426.068-.102.123-.216.348-.266-1.16 5.735-1.762 11.495-2.264 17.274-.277-.046-.188-.218-.189-.331-.117-2.506-.43-4.999-.645-7.499a137.396 137.396 0 0 0-.314-3.337c-.06-.534.24-.962.459-1.415zm-90.234-2.913c.986-1.479 1.965-2.962 3.1-4.359.041-.052.09-.102.135-.15-1.268 6.472-2.178 12.969-2.676 19.515-.164-1.711-.338-3.421-.494-5.133-.229-2.445-.414-4.896-.688-7.338-.106-.931.078-1.728.623-2.535zm-3.889 9.205c.025.04.01.055-.043.038-.008-.003-.006-.025-.008-.038h.051zm-.51 1.89l.314-1.455c.117.8.055 1.591-.119 2.376-.117 1.438-.236 2.876-.355 4.314-.256-1.756-.015-3.494.16-5.235zm-68.808-9.828l.301-3.387c.027-.335.059-.67.098-1.124.262.357.299.637.314.92 1.037 4.704 1.393 9.454 1.223 14.239a28.24 28.24 0 0 1-.395 3.978c-.256.053-.26-.133-.305-.244a439.499 439.499 0 0 1-1.539-4.151 1.78 1.78 0 0 1-.084-.61c-.002-3.211.102-6.418.387-9.621zm-64.254 1.646c.742-1.532 1.635-2.996 2.604-4.427.07-.101.125-.215.35-.265-1.16 5.735-1.762 11.495-2.262 17.274-.279-.046-.188-.218-.191-.331-.117-2.506-.432-4.999-.645-7.499-.09-1.114-.195-2.227-.313-3.337-.063-.534.236-.962.457-1.415zm-90.236-2.913c.993-1.479 1.967-2.962 3.105-4.359.039-.052.086-.102.131-.15-1.268 6.472-2.176 12.969-2.672 19.515-.168-1.711-.337-3.421-.495-5.133-.229-2.445-.414-4.896-.687-7.338-.106-.931.076-1.728.618-2.535zm-3.887 9.205c.022.04.008.055-.041.038-.007-.003-.005-.025-.007-.038h.048zm-.51 1.89l.315-1.455c.118.8.055 1.591-.119 2.376l-.356 4.314c-.258-1.756-.014-3.494.16-5.235zm-68.805-9.828l.303-3.387c.026-.335.058-.67.097-1.124.259.356.297.637.313.92 1.034 4.704 1.39 9.454 1.223 14.239a28.393 28.393 0 0 1-.397 3.978c-.254.052-.259-.133-.3-.244a362.556 362.556 0 0 1-1.541-4.151 1.78 1.78 0 0 1-.084-.61c-.003-3.211.103-6.418.386-9.621zm-5.747 13.785c.104.803.225 1.603.326 2.404.021.157.021.313.021.47h-.354l-.009-.2c-.008-.188.007-.375.013-.563a122.99 122.99 0 0 0-.684-7.448c.23 1.778.456 3.558.687 5.337zm-46.088-12.139c.743-1.532 1.636-2.996 2.605-4.427.069-.101.125-.215.347-.265-1.157 5.735-1.761 11.495-2.261 17.274-.278-.046-.186-.218-.191-.331-.118-2.506-.429-4.999-.643-7.499a132.56 132.56 0 0 0-.315-3.337c-.06-.534.238-.962.458-1.415zm-49.039 14.278c.205-3.177.653-6.322 1.469-9.426.806-3.07 2.465-6.065 3.744-9.021-2.087 2.471-2.635 5.192-4.635 7.937V9.547a71.035 71.035 0 0 1 3.158 6.715c1.362 3.335 2.332 6.762 3.275 10.198.584 2.132.304 4.221.102 6.34-.259 2.73-.476 5.465-.685 8.2h-1.403l-1.58-12.892-.176-.009-1.583 12.899h-1.719c.009-.258.019-.506.033-.733zm-41.194-17.191c.99-1.479 1.965-2.962 3.101-4.359.041-.052.087-.102.132-.15-1.267 6.472-2.175 12.969-2.672 19.515-.167-1.711-.337-3.421-.497-5.133-.228-2.445-.412-4.896-.686-7.338-.106-.931.079-1.728.622-2.535zm-3.888 9.205c.022.04.007.055-.043.038-.006-.003-.005-.025-.006-.038h.049zm-.511 1.89l.314-1.455c.117.8.056 1.591-.117 2.376-.118 1.438-.239 2.876-.359 4.314-.257-1.756-.013-3.494.162-5.235zm-68.807-9.828c.1-1.129.203-2.257.302-3.387.03-.335.058-.67.096-1.124.259.356.297.637.314.92 1.037 4.704 1.392 9.454 1.226 14.239a28.244 28.244 0 0 1-.397 3.978c-.255.052-.259-.133-.302-.244a413.558 413.558 0 0 1-1.541-4.151 1.804 1.804 0 0 1-.084-.61c-.002-3.211.102-6.418.386-9.621zm-57.562 1.646c.742-1.532 1.635-2.996 2.606-4.427.069-.101.124-.215.347-.265-1.158 5.735-1.762 11.495-2.263 17.274-.277-.046-.185-.218-.19-.331-.118-2.506-.431-4.999-.644-7.499-.09-1.114-.195-2.227-.314-3.337-.059-.534.238-.962.458-1.415zm-90.232-2.913c.989-1.479 1.963-2.962 3.101-4.359.041-.052.087-.102.132-.15-1.269 6.472-2.176 12.969-2.672 19.515-.167-1.711-.338-3.421-.498-5.133-.228-2.445-.412-4.896-.687-7.338-.105-.931.08-1.728.624-2.535zm-3.89 9.205c.024.04.009.055-.042.038-.007-.003-.005-.025-.007-.038h.049zm-.51 1.89l.315-1.455c.117.8.053 1.591-.118 2.376l-.358 4.314c-.257-1.756-.013-3.494.161-5.235z"/></svg>