<svg xmlns="http://www.w3.org/2000/svg" width="474.269" height="496.037" viewBox="0 0 444.627 465.03499"><g transform="translate(-262.969 .454)"><path d="M707.596 92.672c0-21.419-37.828-40.336-95.6-51.699C597.179 17.127 546.065-.454 485.282-.454c-60.785 0-111.897 17.582-126.715 41.427-57.77 11.363-95.598 30.28-95.598 51.699 0 11.668 11.235 22.592 30.791 31.958l-8.941 21.729c-.17-.008-.338-.026-.51-.026-5.891 0-10.667 4.775-10.667 10.667 0 5.892 4.775 10.667 10.667 10.667 5.892 0 10.667-4.775 10.667-10.667 0-1.793-.447-3.48-1.229-4.963l16.466-20.583c40.696 14.694 103.985 24.137 175.069 24.137 68.144 0 129.113-8.68 169.894-22.343l15.03 18.789a10.619 10.619 0 0 0-1.229 4.963c0 5.891 4.775 10.667 10.666 10.667S690.31 162.892 690.31 157c0-5.892-4.775-10.667-10.666-10.667-.172 0-.34.018-.51.026l-7.9-19.199c22.981-9.904 36.362-21.753 36.362-34.488z" fill="#1a1a1a"/><ellipse cx="485.412" cy="93.137" rx="99.587" ry="35.346" fill="#b3b3b3"/><path opacity=".3" fill="#b3b3b3" d="M630.393 464.581L584.999 93.137l-198.215-4.902-48.877 374.846z"/></g></svg>