<svg xmlns="http://www.w3.org/2000/svg" width="322.512" height="63.398" viewBox="0 0 322.512 63.398"><g fill="#fff"><path d="M18.226 0c5.822 0 10.262 2.773 13.319 8.32 1.012 1.816 1.519 4.238 1.519 7.266v6.328h-9.697v-6.797c0-2.656-1.129-4.453-3.388-5.391-.37-.234-.954-.352-1.752-.352h-.584c-2.24 0-3.836 1.367-4.79 4.102a6.28 6.28 0 0 0-.117 1.172v13.828c0 1.641-1.09 2.969-3.271 3.984l-.234.352v.234c.214.254 1.071.879 2.57 1.875.623.742.935 1.563.935 2.461V48.75c0 2.227 1.285 3.867 3.855 4.922.428.078.779.117 1.052.117h.701c1.967 0 3.485-1.055 4.557-3.164.311-.645.467-1.387.467-2.227V39.96h9.697v7.969c0 4.063-1.051 7.344-3.154 9.844-3.135 3.75-6.991 5.625-11.566 5.625h-.117c-5.822 0-10.262-2.813-13.319-8.438-.935-1.758-1.402-4.063-1.402-6.914V37.383c0-1.367-1.051-2.5-3.154-3.398 0-.117-.117-.234-.351-.352 0-.273.857-1.094 2.57-2.461.624-.664.935-1.563.935-2.695V15.469c0-7.305 3.544-12.265 10.632-14.883A22.893 22.893 0 0 1 18.226 0z"/><path d="M50.003 0h1.402c5.218 0 9.463 2.813 12.734 8.438.857 2.051 1.285 3.965 1.285 5.742v14.766c0 1.582-1.129 2.911-3.388 3.984l-.117.234v.234c.019.117.876.743 2.57 1.875.623.684.935 1.465.935 2.344v11.25c0 5.703-2.882 10.117-8.646 13.242-2.083.859-4.147 1.289-6.192 1.289-5.803 0-10.281-2.93-13.436-8.789-.779-1.914-1.168-3.828-1.168-5.742V37.734c0-1.68-1.012-2.93-3.038-3.75-.311-.371-.467-.645-.467-.82 2.259-1.582 3.388-2.832 3.388-3.75a6.28 6.28 0 0 0 .117-1.172V14.18c0-5.156 2.648-9.375 7.944-12.656C46.09.508 48.115 0 50.003 0zm-4.906 14.648v13.828c0 1.66-1.051 2.949-3.154 3.867l-.351.469v.234c.078.195.896.781 2.454 1.758.701.703 1.051 1.563 1.051 2.578v11.016c0 2.5 1.324 4.219 3.972 5.156.312.078.623.117.935.117h1.168c.993 0 2.044-.547 3.154-1.641.935-1.035 1.402-2.246 1.402-3.633V37.734c0-1.875-1.013-3.242-3.038-4.102-.04-.156-.234-.312-.584-.469 0-.469.662-1.015 1.986-1.641 1.09-.762 1.636-1.855 1.636-3.281V14.648c0-2.676-1.402-4.434-4.206-5.273l-1.168-.117c-2.531 0-4.245 1.406-5.141 4.219-.077.41-.116.801-.116 1.171z"/><path d="M68.346.762h10.398c.292.352.837 2.07 1.636 5.156 4.595 15.195 6.893 22.969 6.893 23.32v.586c0 .879-.74 1.777-2.22 2.695l-.117.234v.352l3.388 2.109c.915.645 1.811 2.793 2.687 6.445v.117h.117v-4.219c0-1.641-1.052-2.969-3.155-3.984l-.35-.469v-.234c1.674-1.074 2.687-1.855 3.038-2.344.311-.527.467-.996.467-1.406V.762h9.463V27.95c0 2.246-.701 3.652-2.103 4.219l-1.519 1.055c.214.469 1.032 1.133 2.454 1.992.778.957 1.168 1.699 1.168 2.227v25.195H90.427c-.39-1.465-3.194-10.176-8.412-26.133-1.033-1.289-2.551-2.383-4.557-3.281l-.117-.586c1.558-1.015 2.336-1.992 2.336-2.93 0-.371-.584-2.441-1.752-6.211h-.115v4.688c0 1.895-1.052 3.301-3.154 4.219l-.351.469v.234c.156.274 1.012.898 2.57 1.875.623.801.935 1.738.935 2.813v24.844h-9.463V37.324c0-1.25-.974-2.305-2.921-3.164l-.467-.469c0-.429.662-1.055 1.986-1.875.935-.918 1.402-1.777 1.402-2.578V.762zM103.512.762h28.974v9.492h-9.814v18.398c0 1.582-1.09 2.871-3.271 3.867l-.234.352v.234c.097.215.798.723 2.103 1.523.935.801 1.402 1.621 1.402 2.461v25.547h-9.346v-24.96c0-1.895-1.168-3.34-3.505-4.336v-.469c.077-.195.895-.781 2.453-1.758.701-.742 1.052-1.68 1.052-2.813V10.254h-9.814V.762zM158.54.762c.194 0 .584 2.07 1.168 6.211 2.492 14.336 3.739 21.914 3.739 22.734 0 .977-.857 1.992-2.57 3.047l-.117.586c2.726 1.641 4.089 3.125 4.089 4.453.077.098 1.479 8.379 4.205 24.844h-9.813l-2.22-14.18h-9.463c-.214 0-.565 1.992-1.051 5.977l-1.402 8.203h-9.697l4.323-25.664h-.117c0-.078.039-.117.117-.117 0-1.035-.896-2.051-2.687-3.047v-.586c1.655-1.152 2.862-2.168 3.622-3.047.389-.664 1.285-5.585 2.687-14.766.078-.234.935-5.117 2.57-14.648h12.617zm-6.309 14.648c-1.247 9.023-1.947 13.75-2.103 14.18-.37.723-.954 1.348-1.752 1.875-1.48.781-2.22 1.367-2.22 1.758 2.025 1.172 3.038 2.422 3.038 3.75l-.351 2.344h6.776c0-2.852-1.285-4.765-3.855-5.742l-.467-.469v-.352c1.869-1.289 2.804-2.304 2.804-3.047 0-.234.039-.508.117-.82-1.247-8.457-1.87-12.949-1.87-13.477h-.117zM185.236 0c5.822 0 10.262 2.773 13.318 8.32 1.013 1.816 1.52 4.238 1.52 7.266v6.328h-9.697v-6.797c0-2.656-1.13-4.453-3.388-5.391-.37-.234-.955-.352-1.753-.352h-.584c-2.239 0-3.836 1.367-4.79 4.102a6.28 6.28 0 0 0-.117 1.172v13.828c0 1.641-1.091 2.969-3.271 3.984l-.233.352v.234c.214.254 1.07.879 2.57 1.875.623.742.935 1.563.935 2.461V48.75c0 2.227 1.285 3.867 3.855 4.922.428.078.778.117 1.052.117h.701c1.966 0 3.485-1.055 4.556-3.164.312-.645.468-1.387.468-2.227V39.96h9.697v7.969c0 4.063-1.052 7.344-3.154 9.844-3.136 3.75-6.991 5.625-11.566 5.625h-.117c-5.822 0-10.262-2.813-13.318-8.438-.935-1.758-1.402-4.063-1.402-6.914V37.383c0-1.367-1.052-2.5-3.154-3.398 0-.117-.117-.234-.351-.352 0-.273.857-1.094 2.57-2.461.623-.664.935-1.563.935-2.695V15.469c0-7.305 3.544-12.265 10.632-14.883A22.868 22.868 0 0 1 185.236 0zM202.995.762h28.975v9.492h-9.814v18.398c0 1.582-1.091 2.871-3.271 3.867l-.233.352v.234c.098.215.798.723 2.104 1.523.935.801 1.401 1.621 1.401 2.461v25.547h-9.347v-24.96c0-1.895-1.168-3.34-3.505-4.336v-.469c.078-.195.896-.781 2.454-1.758.7-.742 1.051-1.68 1.051-2.813V10.254h-9.813V.762zM249.727.762h13.436c3.349 17.227 5.18 26.758 5.491 28.594 0 1.094-.935 2.227-2.804 3.398 0 .391.896 1.055 2.687 1.992 1.246.938 1.869 2.148 1.869 3.633.623 2.637 1.052 4.824 1.285 6.563h.117c.856-4.766 1.362-7.383 1.519-7.852 0-1.484-.935-2.734-2.804-3.75v-.469l3.154-2.109c.682-.527 1.188-1.816 1.519-3.867 3.115-16.816 4.751-25.527 4.907-26.133h12.852v28.242c0 1.66-1.091 2.988-3.271 3.984l-.233.352v.234c0 .059.856.684 2.57 1.875.623.859.935 1.484.935 1.875v25.313h-9.347V37.559c0-1.328-1.129-2.617-3.388-3.867 0-.117-.078-.273-.233-.469.175-.293.953-.839 2.336-1.641.856-.703 1.285-1.718 1.285-3.047v-4.336h-.116c-.701 4.297-1.285 6.445-1.753 6.445 0 .293-1.052.996-3.154 2.109l-.351.469c0 .274.584.86 1.753 1.758.506.527.817 1.23.935 2.109l-5.375 25.547h-7.36c-.194 0-.623-1.719-1.285-5.156l-5.023-21.094c-.974-1.23-2.143-2.128-3.505-2.695-.351-.234-.584-.352-.701-.352v-.469c1.636-1.387 2.454-2.285 2.454-2.695a3.49 3.49 0 0 0 .116-.82l-1.052-5.039h-.116v4.336c0 1.543-1.013 2.871-3.038 3.984l-.351.469v.234c0 .078.857.703 2.57 1.875.545.625.818 1.367.818 2.227v25.195h-9.347v-25.43c-.447-1.133-1.577-2.188-3.388-3.164 0-.078-.039-.195-.117-.352 0-.215.896-.918 2.688-2.109.545-.82.817-1.641.817-2.461V.762z"/><path d="M295.875.762h26.638v9.375h-17.175v16.875h12.501v2.109c0 1.309-1.09 2.52-3.271 3.633l-.117.586c1.85 1.27 2.901 2.285 3.154 3.047h-12.384l.116 1.406v15.469h17.175v9.375h-26.638V37.09c0-1.27-1.09-2.402-3.271-3.398l-.116-.586c2.259-1.563 3.388-2.852 3.388-3.867V.762z"/></g></svg>