<?xml version="1.0" encoding="utf-8"?>
<!-- Generator: Adobe Illustrator 16.0.0, SVG Export Plug-In . SVG Version: 6.00 Build 0)  -->
<!DOCTYPE svg PUBLIC "-//W3C//DTD SVG 1.1//EN" "http://www.w3.org/Graphics/SVG/1.1/DTD/svg11.dtd">
<svg version="1.1" id="Capa_1" xmlns="http://www.w3.org/2000/svg" xmlns:xlink="http://www.w3.org/1999/xlink" x="0px" y="0px"
	 width="322.512px" height="63.398px" viewBox="0 0 322.512 63.398" enable-background="new 0 0 322.512 63.398"
	 xml:space="preserve">
<g>
	<path fill="#ffffff" d="M18.226,0c5.822,0,10.262,2.773,13.319,8.32c1.012,1.816,1.519,4.238,1.519,7.266v6.328h-9.697v-6.797
		c0-2.656-1.129-4.453-3.388-5.391c-0.37-0.234-0.954-0.352-1.752-0.352h-0.584c-2.24,0-3.836,1.367-4.79,4.102
		c-0.078,0.41-0.117,0.801-0.117,1.172v13.828c0,1.641-1.09,2.969-3.271,3.984l-0.234,0.352v0.234
		c0.214,0.254,1.071,0.879,2.57,1.875c0.623,0.742,0.935,1.563,0.935,2.461V48.75c0,2.227,1.285,3.867,3.855,4.922
		c0.428,0.078,0.779,0.117,1.052,0.117h0.701c1.967,0,3.485-1.055,4.557-3.164c0.311-0.645,0.467-1.387,0.467-2.227v-8.438h9.697
		v7.969c0,4.063-1.051,7.344-3.154,9.844c-3.135,3.75-6.991,5.625-11.566,5.625h-0.117c-5.822,0-10.262-2.813-13.319-8.438
		c-0.935-1.758-1.402-4.063-1.402-6.914V37.383c0-1.367-1.051-2.5-3.154-3.398c0-0.117-0.117-0.234-0.351-0.352
		c0-0.273,0.857-1.094,2.57-2.461c0.624-0.664,0.935-1.563,0.935-2.695V15.469c0-7.305,3.544-12.265,10.632-14.883
		C15.441,0.274,16.804,0.078,18.226,0z"/>
	<path fill="#ffffff" d="M50.003,0h1.402c5.218,0,9.463,2.813,12.734,8.438c0.857,2.051,1.285,3.965,1.285,5.742v14.766
		c0,1.582-1.129,2.911-3.388,3.984l-0.117,0.234v0.234c0.019,0.117,0.876,0.743,2.57,1.875c0.623,0.684,0.935,1.465,0.935,2.344
		v11.25c0,5.703-2.882,10.117-8.646,13.242c-2.083,0.859-4.147,1.289-6.192,1.289c-5.803,0-10.281-2.93-13.436-8.789
		c-0.779-1.914-1.168-3.828-1.168-5.742V37.734c0-1.68-1.012-2.93-3.038-3.75c-0.311-0.371-0.467-0.645-0.467-0.82
		c2.259-1.582,3.388-2.832,3.388-3.75c0.078-0.41,0.117-0.801,0.117-1.172V14.18c0-5.156,2.648-9.375,7.944-12.656
		C46.09,0.508,48.115,0,50.003,0z M45.097,14.648v13.828c0,1.66-1.051,2.949-3.154,3.867l-0.351,0.469v0.234
		c0.078,0.195,0.896,0.781,2.454,1.758c0.701,0.703,1.051,1.563,1.051,2.578v11.016c0,2.5,1.324,4.219,3.972,5.156
		c0.312,0.078,0.623,0.117,0.935,0.117h1.168c0.993,0,2.044-0.547,3.154-1.641c0.935-1.035,1.402-2.246,1.402-3.633V37.734
		c0-1.875-1.013-3.242-3.038-4.102c-0.04-0.156-0.234-0.312-0.584-0.469c0-0.469,0.662-1.015,1.986-1.641
		c1.09-0.762,1.636-1.855,1.636-3.281V14.648c0-2.676-1.402-4.434-4.206-5.273l-1.168-0.117c-2.531,0-4.245,1.406-5.141,4.219
		C45.136,13.887,45.097,14.278,45.097,14.648z"/>
	<path fill="#ffffff" d="M68.346,0.762h10.398c0.292,0.352,0.837,2.07,1.636,5.156c4.595,15.195,6.893,22.969,6.893,23.32v0.586
		c0,0.879-0.74,1.777-2.22,2.695l-0.117,0.234v0.352l3.388,2.109c0.915,0.645,1.811,2.793,2.687,6.445v0.117h0.117v-4.219
		c0-1.641-1.052-2.969-3.155-3.984l-0.35-0.469v-0.234c1.674-1.074,2.687-1.855,3.038-2.344c0.311-0.527,0.467-0.996,0.467-1.406
		V0.762h9.463v27.188c0,2.246-0.701,3.652-2.103,4.219l-1.519,1.055c0.214,0.469,1.032,1.133,2.454,1.992
		c0.778,0.957,1.168,1.699,1.168,2.227v25.195H90.427c-0.39-1.465-3.194-10.176-8.412-26.133c-1.033-1.289-2.551-2.383-4.557-3.281
		l-0.117-0.586c1.558-1.015,2.336-1.992,2.336-2.93c0-0.371-0.584-2.441-1.752-6.211H77.81v4.688c0,1.895-1.052,3.301-3.154,4.219
		l-0.351,0.469v0.234c0.156,0.274,1.012,0.898,2.57,1.875c0.623,0.801,0.935,1.738,0.935,2.813v24.844h-9.463V37.324
		c0-1.25-0.974-2.305-2.921-3.164l-0.467-0.469c0-0.429,0.662-1.055,1.986-1.875c0.935-0.918,1.402-1.777,1.402-2.578V0.762z"/>
	<path fill="#ffffff" d="M103.512,0.762h28.974v9.492h-9.814v18.398c0,1.582-1.09,2.871-3.271,3.867l-0.234,0.352v0.234
		c0.097,0.215,0.798,0.723,2.103,1.523c0.935,0.801,1.402,1.621,1.402,2.461v25.547h-9.346V37.676c0-1.895-1.168-3.34-3.505-4.336
		v-0.469c0.077-0.195,0.895-0.781,2.453-1.758c0.701-0.742,1.052-1.68,1.052-2.813V10.254h-9.814V0.762z"/>
	<path fill="#ffffff" d="M158.54,0.762c0.194,0,0.584,2.07,1.168,6.211c2.492,14.336,3.739,21.914,3.739,22.734
		c0,0.977-0.857,1.992-2.57,3.047l-0.117,0.586c2.726,1.641,4.089,3.125,4.089,4.453c0.077,0.098,1.479,8.379,4.205,24.844h-9.813
		l-2.22-14.18h-9.463c-0.214,0-0.565,1.992-1.051,5.977l-1.402,8.203h-9.697l4.323-25.664h-0.117c0-0.078,0.039-0.117,0.117-0.117
		c0-1.035-0.896-2.051-2.687-3.047v-0.586c1.655-1.152,2.862-2.168,3.622-3.047c0.389-0.664,1.285-5.585,2.687-14.766
		c0.078-0.234,0.935-5.117,2.57-14.648H158.54z M152.231,15.41c-1.247,9.023-1.947,13.75-2.103,14.18
		c-0.37,0.723-0.954,1.348-1.752,1.875c-1.48,0.781-2.22,1.367-2.22,1.758c2.025,1.172,3.038,2.422,3.038,3.75l-0.351,2.344h6.776
		c0-2.852-1.285-4.765-3.855-5.742l-0.467-0.469v-0.352c1.869-1.289,2.804-2.304,2.804-3.047c0-0.234,0.039-0.508,0.117-0.82
		c-1.247-8.457-1.87-12.949-1.87-13.477H152.231z"/>
	<path fill="#ffffff" d="M185.236,0c5.822,0,10.262,2.773,13.318,8.32c1.013,1.816,1.52,4.238,1.52,7.266v6.328h-9.697v-6.797
		c0-2.656-1.13-4.453-3.388-5.391c-0.37-0.234-0.955-0.352-1.753-0.352h-0.584c-2.239,0-3.836,1.367-4.79,4.102
		c-0.078,0.41-0.117,0.801-0.117,1.172v13.828c0,1.641-1.091,2.969-3.271,3.984l-0.233,0.352v0.234
		c0.214,0.254,1.07,0.879,2.57,1.875c0.623,0.742,0.935,1.563,0.935,2.461V48.75c0,2.227,1.285,3.867,3.855,4.922
		c0.428,0.078,0.778,0.117,1.052,0.117h0.701c1.966,0,3.485-1.055,4.556-3.164c0.312-0.645,0.468-1.387,0.468-2.227v-8.438h9.697
		v7.969c0,4.063-1.052,7.344-3.154,9.844c-3.136,3.75-6.991,5.625-11.566,5.625h-0.117c-5.822,0-10.262-2.813-13.318-8.438
		c-0.935-1.758-1.402-4.063-1.402-6.914V37.383c0-1.367-1.052-2.5-3.154-3.398c0-0.117-0.117-0.234-0.351-0.352
		c0-0.273,0.857-1.094,2.57-2.461c0.623-0.664,0.935-1.563,0.935-2.695V15.469c0-7.305,3.544-12.265,10.632-14.883
		C182.451,0.274,183.814,0.078,185.236,0z"/>
	<path fill="#ffffff" d="M202.995,0.762h28.975v9.492h-9.814v18.398c0,1.582-1.091,2.871-3.271,3.867l-0.233,0.352v0.234
		c0.098,0.215,0.798,0.723,2.104,1.523c0.935,0.801,1.401,1.621,1.401,2.461v25.547h-9.347V37.676c0-1.895-1.168-3.34-3.505-4.336
		v-0.469c0.078-0.195,0.896-0.781,2.454-1.758c0.7-0.742,1.051-1.68,1.051-2.813V10.254h-9.813V0.762z"/>
	<path fill="#ffffff" d="M249.727,0.762h13.436c3.349,17.227,5.18,26.758,5.491,28.594c0,1.094-0.935,2.227-2.804,3.398
		c0,0.391,0.896,1.055,2.687,1.992c1.246,0.938,1.869,2.148,1.869,3.633c0.623,2.637,1.052,4.824,1.285,6.563h0.117
		c0.856-4.766,1.362-7.383,1.519-7.852c0-1.484-0.935-2.734-2.804-3.75v-0.469l3.154-2.109c0.682-0.527,1.188-1.816,1.519-3.867
		c3.115-16.816,4.751-25.527,4.907-26.133h12.852v28.242c0,1.66-1.091,2.988-3.271,3.984l-0.233,0.352v0.234
		c0,0.059,0.856,0.684,2.57,1.875c0.623,0.859,0.935,1.484,0.935,1.875v25.313h-9.347V37.559c0-1.328-1.129-2.617-3.388-3.867
		c0-0.117-0.078-0.273-0.233-0.469c0.175-0.293,0.953-0.839,2.336-1.641c0.856-0.703,1.285-1.718,1.285-3.047v-4.336h-0.116
		c-0.701,4.297-1.285,6.445-1.753,6.445c0,0.293-1.052,0.996-3.154,2.109l-0.351,0.469c0,0.274,0.584,0.86,1.753,1.758
		c0.506,0.527,0.817,1.23,0.935,2.109l-5.375,25.547h-7.36c-0.194,0-0.623-1.719-1.285-5.156l-5.023-21.094
		c-0.974-1.23-2.143-2.128-3.505-2.695c-0.351-0.234-0.584-0.352-0.701-0.352v-0.469c1.636-1.387,2.454-2.285,2.454-2.695
		c0.077-0.312,0.116-0.586,0.116-0.82l-1.052-5.039h-0.116v4.336c0,1.543-1.013,2.871-3.038,3.984l-0.351,0.469v0.234
		c0,0.078,0.857,0.703,2.57,1.875c0.545,0.625,0.818,1.367,0.818,2.227v25.195h-9.347v-25.43c-0.447-1.133-1.577-2.188-3.388-3.164
		c0-0.078-0.039-0.195-0.117-0.352c0-0.215,0.896-0.918,2.688-2.109c0.545-0.82,0.817-1.641,0.817-2.461V0.762z"/>
	<path fill="#ffffff" d="M295.875,0.762h26.638v9.375h-17.175v16.875h12.501v2.109c0,1.309-1.09,2.52-3.271,3.633l-0.117,0.586
		c1.85,1.27,2.901,2.285,3.154,3.047h-12.384l0.116,1.406v15.469h17.175v9.375h-26.638V37.09c0-1.27-1.09-2.402-3.271-3.398
		l-0.116-0.586c2.259-1.563,3.388-2.852,3.388-3.867V0.762z"/>
</g>
</svg>
